PathFileType	4	(X/Y/Z)	C:\Users\Basilio\Documents\Thesis Gigler\squatting_fais\c3dfiles\075\SJ_pre3\markers_experimental.trc
DataRate	CameraRate	NumFrames	NumMarkers	Units	OrigDataRate	OrigDataStartFrame	OrigNumFrames
200.000000	200.000000	4	61	mm	200.000000	416	1664
Frame#	Time	FHD			LBHD			RBHD			C7			T10			CLAV			LSHO			LUUPA			LMUPA			LDUPA			LLEP			LMEP			LRAD			LUL			LRFIN			RSHO			RUPA1			RMUPA			RDUPA			RLEP			RMEP			RRAD			RUL			RUFIN			LASI			RASI			USACR			LSACR			RSACR			LTHI1			LTHI2			LTHI3			LTHI4			LLFC			LMFC			LTIB1			LTIB2			LTIB3			LTIB4			LLMAL			LMMAL			LHEE			LMT1			LMT2			LMT5			RTHI			RTHI2			RTHI3			RTHI4			RLFC			RMFC			RTIB1			RTIB2			RTIB3			RTIB4			RLMAL			RMMAL			RHEE			RMT1			RMT2			RMT5			
		X1	Y1	Z1	X2	Y2	Z2	X3	Y3	Z3	X4	Y4	Z4	X5	Y5	Z5	X6	Y6	Z6	X7	Y7	Z7	X8	Y8	Z8	X9	Y9	Z9	X10	Y10	Z10	X11	Y11	Z11	X12	Y12	Z12	X13	Y13	Z13	X14	Y14	Z14	X15	Y15	Z15	X16	Y16	Z16	X17	Y17	Z17	X18	Y18	Z18	X19	Y19	Z19	X20	Y20	Z20	X21	Y21	Z21	X22	Y22	Z22	X23	Y23	Z23	X24	Y24	Z24	X25	Y25	Z25	X26	Y26	Z26	X27	Y27	Z27	X28	Y28	Z28	X29	Y29	Z29	X30	Y30	Z30	X31	Y31	Z31	X32	Y32	Z32	X33	Y33	Z33	X34	Y34	Z34	X35	Y35	Z35	X36	Y36	Z36	X37	Y37	Z37	X38	Y38	Z38	X39	Y39	Z39	X40	Y40	Z40	X41	Y41	Z41	X42	Y42	Z42	X43	Y43	Z43	X44	Y44	Z44	X45	Y45	Z45	X46	Y46	Z46	X47	Y47	Z47	X48	Y48	Z48	X49	Y49	Z49	X50	Y50	Z50	X51	Y51	Z51	X52	Y52	Z52	X53	Y53	Z53	X54	Y54	Z54	X55	Y55	Z55	X56	Y56	Z56	X57	Y57	Z57	X58	Y58	Z58	X59	Y59	Z59	X60	Y60	Z60	X61	Y61	Z61	

417	2.08	-13.4326400756836	1477.644409179688	-907.4251098632815	-194.2350769042969	1422.652221679688	-977.584411621094	-144.9235992431641	1442.734741210938	-824.6831054687502	-265.8506164550782	1330.55078125	-917.882263183594	-414.4204406738282	1040.66015625	-917.2124023437502	-157.3498229980469	1217.46630859375	-917.1707153320315	-177.2699127197266	1267.5263671875	-1071.805297851563	-258.8220214843751	1144.931030273438	-1243.384155273438	-244.8203887939454	1098.6689453125	-1230.361694335938	-275.7796325683594	1088.176879882813	-1281.060302734375	-303.4864807128907	1007.798400878906	-1305.737426757813	-384.937957763672	1032.677856445313	-1270.466674804688	-377.1788940429688	840.9471435546877	-1136.092529296875	-341.8070068359376	789.4995117187502	-1179.66357421875	-336.3374938964844	828.9818115234377	-1092.722045898438	-176.6725769042969	1267.560913085938	-759.2235717773439	-273.8027038574219	1155.9873046875	-597.0309448242189	-265.0736999511719	1106.875122070313	-602.5593872070314	-303.8105163574219	1105.8828125	-556.2216796875001	-331.1966857910157	1043.178833007813	-528.8311767578126	-412.1695556640626	1048.59912109375	-555.7476196289064	-341.2807922363282	812.294616699219	-649.1398315429689	-378.4670410156251	850.372741699219	-703.6846923828126	-325.8651733398438	837.3708496093752	-742.6358032226564	-322.8379211425782	823.0263671875002	-1038.476806640625	-319.4814758300782	829.5093994140627	-793.5842895507815	-452.704071044922	940.9168701171877	-918.6289672851565	-470.0012817382814	913.2863769531252	-945.9208984375002	-469.7002868652345	914.8721923828127	-887.889831542969	-325.4247436523438	644.8005981445314	-1141.715942382813	-260.3422851562501	593.1553344726564	-1155.217041015625	-220.7795867919922	617.6389770507814	-1136.0966796875	-257.5692443847657	532.0021972656251	-1156.161987304688	-215.1430969238282	438.9991455078126	-1151.5625	-167.4230041503907	430.5002746582032	-1034.102783203125	-180.4333190917969	311.0034790039063	-1115.893188476563	-253.774887084961	288.3737792968751	-1160.798828125	-214.8018493652344	272.0459899902344	-1139.416015625	-247.3985748291016	201.6364898681641	-1104.410400390625	-370.2487487792969	92.57604980468751	-1110.124755859375	-330.0314025878907	101.9406509399414	-1030.0146484375	-422.0218505859376	50.38339996337892	-1056.967407226563	-209.5768127441407	52.54687500000001	-1070.470703125	-216.7954864501954	56.98005676269533	-1118.930908203125	-261.8500061035157	41.3310661315918	-1166.250366210938	-351.3434143066407	681.2172241210939	-700.8458251953126	-290.7481079101563	656.4573364257814	-694.5986938476564	-265.8658142089844	676.8164672851564	-706.3056030273439	-270.8720703125001	574.5797119140626	-685.8349609375001	-209.5746612548829	442.250213623047	-705.0113525390626	-165.7544403076172	433.8685913085939	-819.318786621094	-186.5619201660157	295.1056518554688	-761.6189575195314	-262.2105407714844	238.4000396728516	-704.5479736328126	-230.5302429199219	223.4436187744141	-736.9147338867189	-253.1722564697266	184.7592010498047	-775.4781494140627	-357.3862304687501	89.85858154296876	-738.7420654296876	-319.6250305175782	107.3127136230469	-820.1798095703127	-408.1422119140626	49.92415237426759	-797.0452270507815	-198.3387908935547	59.53831481933595	-773.8791503906252	-205.9413146972657	60.28453445434572	-732.5897216796876	-245.6350708007813	35.80839157104493	-684.4137573242189	
418	2.085	-11.84797668457031	1473.044555664063	-907.4925537109377	-192.223861694336	1419.392822265625	-977.2406005859377	-142.9263763427735	1439.01318359375	-824.4783935546877	-264.5379028320313	1327.172729492188	-917.924255371094	-414.7291259765626	1038.215698242188	-917.1421508789065	-156.599609375	1213.78076171875	-917.0325927734377	-176.0366821289063	1263.853515625	-1071.69140625	-258.0360412597657	1141.758544921875	-1243.534790039063	-244.2886657714844	1095.322509765625	-1230.353759765625	-275.0096435546876	1084.939575195313	-1281.203369140625	-303.0606689453126	1004.731323242188	-1305.662109375	-384.5452575683595	1030.112670898438	-1270.752563476563	-378.3659362792969	838.4401855468752	-1136.180297851563	-343.0590820312501	786.976013183594	-1179.690063476563	-336.9114379882813	826.4940185546877	-1092.557739257813	-175.6152496337891	1263.926879882813	-759.1840209960939	-273.1850891113282	1152.9521484375	-596.9437255859376	-264.7579040527344	1103.701049804688	-602.5231323242189	-303.5184631347657	1102.989624023438	-556.1181640625001	-331.1909790039063	1040.435791015625	-528.7509765625001	-412.1579589843751	1046.229248046875	-555.5977783203126	-342.3280334472657	809.623474121094	-649.2641601562501	-379.4247436523438	848.0496826171877	-703.7213134765626	-326.9832763671876	834.9412841796877	-742.7789916992189	-325.4146423339844	819.8227539062502	-1037.3505859375	-320.7676696777344	826.9859619140627	-793.7066650390627	-453.3003845214845	938.6087646484377	-918.6858520507815	-470.9613037109376	911.201354980469	-946.0349121093752	-470.5714721679689	912.668884277344	-887.9055175781252	-325.8992004394532	643.3754882812501	-1141.775146484375	-260.5512390136719	592.5114135742189	-1155.436401367188	-221.3534545898438	617.0848388671876	-1136.120727539063	-256.9837341308594	531.2436523437501	-1156.6123046875	-214.4109344482422	438.4140930175782	-1151.900268554688	-166.876708984375	430.0765380859376	-1034.317749023438	-179.9136810302735	310.4178161621094	-1116.119262695313	-252.1677246093751	287.5858459472657	-1160.583374023438	-215.1841430664063	271.6734924316407	-1140.027099609375	-247.116683959961	201.3607330322266	-1104.406982421875	-370.1224060058594	92.52735137939455	-1110.183837890625	-329.9565429687501	101.9816131591797	-1030.024658203125	-422.0112304687501	50.33364486694337	-1056.995971679688	-209.5865325927735	52.55402755737306	-1070.562744140625	-216.8406219482422	56.98284149169923	-1118.978881835938	-261.8092346191407	41.37968444824219	-1166.254028320313	-352.1788940429688	679.6156616210939	-700.7764892578126	-291.4933776855469	655.0820312500001	-694.5010986328126	-266.6949768066407	676.0635375976564	-706.2456665039064	-271.1008300781251	573.5440063476564	-685.6475830078126	-208.929428100586	441.6928710937501	-704.8082275390626	-165.582763671875	433.3823547363282	-818.7008056640627	-186.0433502197266	294.8452758789063	-761.3883666992189	-261.8239440917969	238.2008514404297	-704.4605712890626	-230.3195953369141	223.2476654052735	-736.7966918945314	-252.926986694336	184.6573791503907	-775.404235839844	-357.2812194824219	89.87114715576173	-738.8107299804689	-319.4903869628907	107.3933334350586	-820.2633056640627	-408.0735168457032	49.92712783813478	-797.1494140625002	-198.2594299316407	59.69107055664064	-773.7910766601565	-206.0731353759766	60.11166381835939	-732.6685180664064	-245.6817779541016	35.76064682006837	-684.4520874023439	
419	2.09	-9.913043022155763	1468.002807617188	-907.6298828125002	-190.3854522705078	1415.695068359375	-977.2984008789065	-141.0384826660157	1435.130126953125	-824.3812255859377	-263.2628173828126	1323.966552734375	-917.9241943359377	-414.8716430664064	1035.897827148438	-917.1859130859377	-155.3887939453125	1209.837890625	-916.735534667969	-175.6006774902344	1260.298950195313	-1072.039672851563	-256.8115539550782	1138.513916015625	-1243.378173828125	-243.6725616455079	1092.087158203125	-1230.213623046875	-274.5913391113282	1082.002807617188	-1281.315673828125	-302.9022521972657	1001.704528808594	-1305.911376953125	-384.0703430175782	1027.553955078125	-1271.134521484375	-379.1739196777344	836.173034667969	-1136.1220703125	-343.8033752441407	784.238464355469	-1179.371826171875	-338.5285339355469	824.2882080078127	-1092.690185546875	-174.4886932373047	1260.32080078125	-759.1187133789064	-272.6329650878907	1149.878784179688	-596.8287353515626	-264.4491271972657	1100.555786132813	-602.5067749023439	-303.1817932128907	1100.135375976563	-556.0083618164064	-331.2353820800782	1037.559936523438	-528.6555786132814	-412.1362304687501	1043.872436523438	-555.4651489257814	-343.3650817871094	807.294128417969	-649.3787231445314	-380.4463195800782	845.6035156250002	-703.8088378906251	-328.0349731445313	832.5629882812502	-742.7821655273439	-325.0166015625001	817.9384765625002	-1038.280517578125	-321.7972412109376	824.5084228515627	-793.7344970703127	-454.3740844726564	936.2025146484377	-918.6409912109377	-471.816619873047	908.9501953125002	-946.0078735351565	-471.3540649414064	910.4909667968752	-887.8469238281252	-327.2665100097657	642.4281005859376	-1142.181274414063	-260.8367919921876	591.4799804687501	-1155.33740234375	-221.7558746337891	616.4261474609376	-1135.989379882813	-256.7982788085938	530.5080566406251	-1157.042236328125	-213.9329681396485	438.0908813476564	-1152.216552734375	-166.1428833007813	429.6069946289064	-1034.586547851563	-179.2538146972657	309.9828186035157	-1116.325439453125	-251.4578552246094	287.1574401855469	-1160.885131835938	-215.0805816650391	271.2954406738282	-1140.282348632813	-247.3913574218751	201.1609954833985	-1104.990356445313	-370.0679931640626	92.47354125976564	-1110.199340820313	-329.9060668945313	101.9158096313477	-1030.085815429688	-422.001190185547	50.32894897460939	-1056.977416992188	-209.5642089843751	52.53210067749025	-1070.566650390625	-216.8412170410157	56.9423065185547	-1119.039794921875	-261.8157043457032	41.34907531738282	-1166.2861328125	-353.0415344238282	677.9296264648439	-700.6739501953126	-292.3274841308594	653.8057250976564	-694.4502563476564	-267.8342895507813	674.7000122070314	-706.4810791015626	-271.2447509765626	572.4854736328126	-685.5327148437501	-208.2844696044922	441.0572814941407	-704.6231079101564	-165.8865051269532	432.7872924804689	-817.5972900390627	-185.4512634277344	294.5501098632813	-761.1481933593751	-261.4822082519532	237.9518737792969	-704.3332519531251	-230.1299438476563	223.0394744873047	-736.7822265625001	-251.8429718017579	184.4236450195313	-774.8813476562502	-357.2526550292969	89.86145782470705	-738.8587646484376	-319.4125061035157	107.3059158325196	-820.2893066406252	-408.0711364746095	49.96855545043947	-797.2276000976565	-198.3122100830079	59.55702590942384	-773.847839355469	-205.8933868408204	60.25898742675783	-732.5150756835939	-245.6131744384766	35.76499557495118	-684.4055786132814	
420	2.095	-7.768930435180666	1463.105590820313	-907.2443847656252	-188.635986328125	1412.284545898438	-977.3038330078127	-139.680892944336	1431.099609375	-824.8702392578127	-261.9298706054688	1320.783569335938	-917.8730468750002	-415.0388488769532	1033.41455078125	-917.0996093750002	-154.601806640625	1206.06103515625	-916.5941162109377	-174.2069396972657	1256.859375	-1071.969360351563	-255.6024322509766	1135.205932617188	-1243.307739257813	-242.2445526123047	1088.693237304688	-1229.8603515625	-273.7312011718751	1078.857788085938	-1281.377563476563	-302.5107727050782	998.7021484375002	-1306.016479492188	-383.5668029785157	1025.016235351563	-1271.50732421875	-380.0031127929688	833.7958984375002	-1136.291625976563	-344.8450012207032	781.8276977539065	-1179.1962890625	-339.7038269042969	821.9672851562502	-1092.62109375	-173.6807556152344	1256.840698242188	-759.1850585937501	-272.0445251464844	1146.7626953125	-596.7518310546876	-264.1981201171876	1097.509155273438	-602.4438476562501	-302.8739624023438	1097.205810546875	-555.8472900390626	-331.2448120117188	1034.810302734375	-528.5103759765626	-412.0911560058595	1041.482788085938	-555.1923828125001	-344.5072631835938	804.5671386718752	-649.5487670898439	-381.6481628417969	843.136901855469	-703.8204956054689	-329.1827392578126	830.2636718750002	-742.9139404296876	-326.3868713378907	815.2967529296877	-1038.384765625	-322.8860778808594	821.749694824219	-793.9299926757815	-454.9716186523439	934.1333007812502	-918.6382446289065	-472.4822692871095	906.867126464844	-946.0181274414065	-472.2601623535157	908.3176879882815	-887.9089355468752	-326.6506958007813	640.9523925781251	-1142.035766601563	-260.8222656250001	590.6981811523439	-1155.6025390625	-222.0377197265626	615.8651733398439	-1135.875	-256.7358093261719	529.8992309570314	-1157.368286132813	-213.4994659423829	437.6541137695314	-1152.589233398438	-165.4939727783203	429.136444091797	-1034.882568359375	-179.2164154052735	309.7131347656251	-1116.773559570313	-252.1803283691407	287.0977783203126	-1161.465698242188	-214.3180084228516	270.8154602050782	-1140.45263671875	-247.1150970458985	200.8482055664063	-1104.980590820313	-369.9780273437501	92.44436645507814	-1110.260375976563	-329.8280029296876	101.9891891479492	-1030.092041015625	-421.9758300781251	50.36023712158205	-1057.003540039063	-209.562728881836	52.5476531982422	-1070.567749023438	-216.7809143066407	56.94581985473634	-1119.023681640625	-261.7894287109376	41.36817169189454	-1166.311645507813	-354.1055297851563	676.3403320312501	-700.7385253906251	-293.1575622558594	652.5153808593751	-694.3123779296876	-268.7262573242188	673.7610473632814	-706.4101562500001	-271.3849182128907	571.3978271484376	-685.3383789062501	-207.6331176757813	440.4978332519532	-704.4598388671876	-165.2509460449219	432.4139709472657	-817.3123168945315	-184.6352081298828	293.9978027343751	-760.7706909179689	-261.1742858886719	237.7134552001954	-704.2963867187501	-229.5436248779297	222.7835845947266	-736.5220336914064	-251.6316528320313	184.2542114257813	-774.7856445312502	-357.1650390625001	89.86717224121095	-738.9195556640626	-319.2842407226563	107.4057846069336	-820.3532714843752	-408.0060119628907	49.95841217041017	-797.2376708984377	-198.2959442138672	59.56633377075197	-773.8133544921877	-205.8717193603516	60.35138320922853	-732.4465332031251	-245.650619506836	35.77067947387696	-684.3895263671876	
